<svg xmlns="http://www.w3.org/2000/svg" xml:space="preserve" id="Layer_1" x="0" y="0" style="enable-background:new 0 0 24 24" version="1.1" viewBox="0 0 24 24"><style>.st2{fill:#fbd50c}.st3{fill:#cc0504}</style><path d="M3.2 14.9s.5-.3 1-.7c.6-.4 1-.7 1-.8 0 0 .1 0 1.1.7.6.4 1 .7 1 .7s-.2-.5-.4-1.2-.4-1.2-.4-1.2.5-.3 1-.7l1-.7H6l-.4-1.2c-.2-.7-.4-1.2-.4-1.3 0 0-.2.4-.3.9-.2.5-.4 1.1-.4 1.2l-.1.4H1.8l1 .7c.6.4 1 .7 1 .7s0 .6-.3 1.3c-.2.7-.3 1.2-.3 1.2z" style="fill:#fff"/><path d="M3.5 20.5 13 12 3.5 3.5C1.3 5.7 0 8.7 0 12s1.3 6.3 3.5 8.5zm-.6-8.8-1-.7h2.6l.1-.3c0-.1.2-.7.4-1.2s.3-1 .3-.9c0 0 .2.5.4 1.2.1.6.3 1.1.3 1.1h2.6l-1 .7c-.6.4-1 .7-1 .7l.4 1.2c.2.7.4 1.2.4 1.2s-.5-.3-1-.7c-1-.7-1-.7-1.1-.7 0 0-.5.3-1 .8-.6.4-1 .7-1 .7s.2-.5.4-1.2.4-1.2.4-1.2-.6-.3-1.2-.7z" style="fill:#0f47af"/><path d="M4.5 21.3C6.5 23 9.1 24 12 24s5.5-1 7.5-2.7l-7.5-1-7.5 1zM19.5 2.7C17.5 1 14.9 0 12 0S6.5 1 4.5 2.7l7.5 1 7.3-1h.2zM23.9 10.7 12 9.7l-1.3 1-1.4-1.4L8 8l4 1 11.3-1c-.3-.9-.8-1.8-1.3-2.7l-10-1-6.7 1L6 6l6 6-6.7 6.7 6.7 1 10-1c.6-.8 1-1.7 1.3-2.7L12 15l-4 1 1.3-1.3 1.3-1.3 1.3 1 11.9-1c0-.4.1-.9.1-1.3.1-.5.1-1 0-1.4z" class="st2"/><path d="M5.3 18.7 4 20l-.5.5c.3.3.6.6 1 .8h15.1c.9-.8 1.8-1.7 2.4-2.7H5.3zM8 8l1.3 1.3 1.3 1.3H23.9c-.1-.9-.3-1.8-.6-2.7H8zM10.7 13.3l-1.3 1.3L8 16h15.3c.3-.9.5-1.7.6-2.7H10.7zM5.3 5.3H22c-.7-1-1.5-1.9-2.4-2.7H4.5c-.4.3-.7.6-1 .9L4 4l1.3 1.3z" class="st3"/></svg>