<svg xmlns="http://www.w3.org/2000/svg" width="24" height="24" fill="none"><g clip-path="url(#a)"><path fill="#D80027" d="M12 24c6.627 0 12-5.373 12-12S18.627 0 12 0 0 5.373 0 12s5.373 12 12 12Z"/><path fill="#EEE" d="M.219 14.292c.1.52.234 1.03.4 1.524h4.33l-2.9 2.9c.432.638.923 1.232 1.465 1.775l4.674-4.674v2.144l-3.534 3.534c.207.16.418.314.635.46l2.9-2.9v4.332c.494.165 1.004.3 1.524.4v-9.495H.22ZM14.287 23.787c.52-.1 1.03-.235 1.524-.4v-4.331l2.9 2.9a12.057 12.057 0 0 0 1.774-1.465l-4.673-4.674h2.143l3.534 3.534c.16-.207.314-.418.461-.635l-2.9-2.9h4.331c.166-.494.3-1.003.4-1.524h-9.494v9.495ZM9.713.224c-.52.1-1.03.234-1.524.4v4.33l-2.9-2.899c-.637.431-1.232.922-1.775 1.465l4.674 4.674H6.044L2.512 4.66c-.16.207-.314.418-.46.635l2.899 2.9H.618c-.165.494-.299 1.003-.4 1.524h9.495V.224ZM15.811 8.194V6.05l3.534-3.534c-.207-.16-.418-.314-.635-.46l-2.9 2.899V.624c-.494-.166-1.003-.3-1.524-.4v9.495h9.495c-.1-.521-.234-1.03-.4-1.525h-4.33l2.899-2.9a12.065 12.065 0 0 0-1.465-1.774l-4.674 4.674Z"/><path fill="#0052B4" d="M8.189.624c-1.037.346-2.01.83-2.9 1.432l2.9 2.899V.624ZM18.71 2.055A11.965 11.965 0 0 0 15.811.623v4.331l2.9-2.9v.001ZM23.382 8.194a11.946 11.946 0 0 0-1.433-2.9l-2.899 2.9h4.331ZM15.811 23.387a11.945 11.945 0 0 0 2.9-1.432l-2.9-2.9v4.331ZM21.95 18.716c.6-.89 1.085-1.863 1.432-2.9h-4.33l2.899 2.9h-.001ZM5.29 21.955c.888.601 1.862 1.085 2.899 1.432v-4.33l-2.9 2.899ZM2.05 5.295c-.6.889-1.085 1.862-1.432 2.9h4.33l-2.899-2.9ZM.618 15.816c.347 1.037.832 2.01 1.432 2.9l2.9-2.9H.618Z"/></g><defs><clipPath id="a"><path fill="#fff" d="M0 0h24v24H0z"/></clipPath></defs></svg>