<?xml version="1.0" encoding="utf-8"?>
<!-- Generator: Adobe Illustrator 27.9.4, SVG Export Plug-In . SVG Version: 9.03 Build 54784)  -->
<svg version="1.1" id="Layer_1" xmlns="http://www.w3.org/2000/svg" xmlns:xlink="http://www.w3.org/1999/xlink" x="0px" y="0px"
	 viewBox="0 0 24 24" style="enable-background:new 0 0 24 24;" xml:space="preserve">
<style type="text/css">
	.st0{fill:#FFDA44;}
	.st1{fill:none;}
	.st2{fill:#D80027;}
	.st3{fill:#EEEEEE;}
	.st4{fill:#FF9811;}
	.st5{fill:#338AF3;}
</style>
<path class="st0" d="M0,12c0,2.3,0.7,4.5,1.8,6.3h20.4c1.1-1.8,1.8-4,1.8-6.3c0-2.3-0.7-4.5-1.8-6.3H1.8C0.7,7.5,0,9.7,0,12z"/>
<g>
	<polyline class="st1" points="24,24 0,24 0,0 	"/>
	<path class="st0" d="M10.3,8.2c-0.1,0-0.1,0-0.2,0.1v0.3c0.2,0,0.4,0.1,0.5,0.1c0,0,0-0.1,0-0.1C10.7,8.4,10.5,8.2,10.3,8.2z
		 M9.2,8.2C9,8.2,8.8,8.4,8.8,8.6c0,0.1,0,0.1,0,0.1C9,8.7,9.2,8.6,9.3,8.6V8.3C9.3,8.2,9.2,8.2,9.2,8.2z M11.2,8.7l-0.2,0L11,8.9
		c0.2,0.1,0.4,0.3,0.5,0.5c0.1-0.1,0.1-0.2,0.1-0.3C11.6,8.9,11.5,8.7,11.2,8.7L11.2,8.7z M8.2,8.7C8,8.7,7.8,8.9,7.8,9.1
		c0,0.1,0,0.2,0.1,0.3C8.1,9.2,8.2,9,8.5,8.9L8.4,8.7L8.2,8.7z"/>
	<path class="st2" d="M12,0C7.6,0,3.7,2.4,1.6,5.9h20.7C20.2,2.3,16.3,0,12,0z M12,24c4.4,0,8.3-2.4,10.4-5.9H1.6
		C3.8,21.7,7.7,24,12,24z"/>
	<path class="st3" d="M13.5,13.1h-0.8v1.1h0.8V13.1z M6.7,10.5H5.9v1.1h0.8V10.5z M13.5,10.5h-0.8v1.1h0.8V10.5z M6.7,12H5.9v0.8
		h0.8V12z M6.7,13.1H5.9v1.1h0.8V13.1z M13.5,12h-0.8v0.8h0.8V12z M9.7,13.9c0,0.4-0.1,0.7-0.4,0.9C9.2,14.9,9,15,8.8,15
		c-0.2,0-0.3,0-0.5,0c-0.1,0-0.3-0.1-0.4-0.1c0.4,0.4,1.1,0.6,1.8,0.6s1.4-0.2,1.8-0.6c-0.5,0.4-1.2,0.3-1.6-0.2
		C9.8,14.4,9.7,14.1,9.7,13.9z"/>
	<path class="st2" d="M6.7,9.3C6.7,9.1,6.5,9,6.3,9S5.9,9.1,5.9,9.3v0.4h0.8V9.3z M13.5,9.3c0-0.2-0.2-0.4-0.4-0.4s-0.4,0.2-0.4,0.4
		v0.4h0.8V9.3z M10.5,12.8c0,0.4-0.3,0.8-0.8,0.8v0.4c0,0.6,0.5,1.1,1.2,1.1c0.6,0,1.1-0.5,1.1-1.1v-1.1H10.5L10.5,12.8z"/>
	<path class="st4" d="M7.1,10.1c0-0.2-0.2-0.4-0.4-0.4l0,0H5.9c-0.2,0-0.4,0.2-0.4,0.4s0.2,0.4,0.4,0.4h0.8
		C6.9,10.5,7.1,10.3,7.1,10.1z M13.9,10.1c0-0.2-0.2-0.4-0.4-0.4l0,0h-0.8c-0.2,0-0.4,0.2-0.4,0.4s0.2,0.4,0.4,0.4h0.8
		C13.7,10.5,13.9,10.3,13.9,10.1z M5.5,14.7c0,0.2,0.2,0.4,0.4,0.4h0.8c0.2,0,0.4-0.2,0.4-0.4s-0.2-0.4-0.4-0.4H5.9
		C5.7,14.3,5.5,14.4,5.5,14.7L5.5,14.7z M12.4,14.7c0,0.2,0.2,0.4,0.4,0.4h0.8c0.2,0,0.4-0.2,0.4-0.4s-0.2-0.4-0.4-0.4h-0.8
		C12.6,14.3,12.4,14.4,12.4,14.7L12.4,14.7z M8.3,12.8V15c0.2,0,0.3,0,0.5,0v-2.2H8.3z M9.3,14.8c0.3-0.2,0.4-0.5,0.4-0.9v-0.4
		c-0.2,0-0.3,0-0.4-0.1V14.8z M7.4,12.8v1.1c0,0.4,0.2,0.7,0.4,0.9v-2H7.4z"/>
	<path class="st2" d="M12.5,12.8c-0.1,0-0.2,0.1-0.2,0.2c0,0.1,0.1,0.2,0.2,0.2h1.3c0.1,0,0.2-0.1,0.2-0.2c0-0.1-0.1-0.2-0.2-0.2
		H12.5L12.5,12.8z M13.8,12c0.1,0,0.2-0.1,0.2-0.2c0-0.1-0.1-0.2-0.2-0.2H12V12H13.8z M5.6,12.8c-0.1,0-0.2,0.1-0.2,0.2
		c0,0.1,0.1,0.2,0.2,0.2H7c0.1,0,0.2-0.1,0.2-0.2c0-0.1-0.1-0.2-0.2-0.2H5.6z"/>
	<path class="st3" d="M10.3,8.2c0.2,0,0.4,0.2,0.4,0.4c0,0.1,0,0.1,0,0.1c0.1,0,0.2,0.1,0.3,0.1l0.1-0.1l0.2,0
		c0.2,0,0.4,0.2,0.4,0.4c0,0.1,0,0.2-0.1,0.3c0.1,0.1,0.1,0.2,0.1,0.4l0,0c0.4-0.2,0.5-0.7,0.3-1c-0.2-0.3-0.5-0.5-0.9-0.4l0,0
		c-0.1-0.4-0.5-0.6-0.9-0.5v0.4C10.2,8.2,10.2,8.2,10.3,8.2L10.3,8.2z M7.8,9.1c0-0.2,0.2-0.4,0.4-0.4l0.2,0l0.1,0.1
		c0.1-0.1,0.2-0.1,0.3-0.1c0,0,0-0.1,0-0.1c0-0.2,0.2-0.4,0.4-0.4c0.1,0,0.1,0,0.2,0V7.8c-0.1,0-0.1,0-0.2,0C8.8,7.8,8.5,8,8.4,8.3
		l-0.2,0C7.8,8.3,7.4,8.6,7.4,9c0,0,0,0,0,0c0,0.3,0.2,0.5,0.4,0.7c0-0.1,0-0.3,0.1-0.4C7.9,9.3,7.8,9.2,7.8,9.1z"/>
	<path class="st4" d="M9.3,8.6c0.3,0,0.5,0,0.8,0V7.4H9.3V8.6z"/>
	<path class="st3" d="M12,10.5H9.7V12c0.4,0,0.8,0.3,0.8,0.8H12V10.5L12,10.5z M11.3,11.9c0,0.3-0.2,0.5-0.5,0.5
		c-0.3,0-0.5-0.2-0.5-0.5v-0.6c0-0.3,0.2-0.5,0.5-0.5c0.3,0,0.5,0.2,0.5,0.5V11.9z"/>
	<path class="st2" d="M11.6,9.7L11.6,9.7c0-0.1,0-0.3-0.1-0.4C11.4,9.1,11.2,9,11,8.9c-0.1-0.1-0.2-0.1-0.3-0.1
		c-0.2-0.1-0.4-0.1-0.5-0.1c-0.3,0-0.5,0-0.8,0C9.2,8.6,9,8.7,8.8,8.7c-0.1,0-0.2,0.1-0.3,0.1C8.3,9,8.1,9.1,7.9,9.3
		C7.9,9.4,7.8,9.6,7.8,9.7v0l0.4,0.4h3C11.2,10.1,11.6,9.7,11.6,9.7z M8.7,9.7c-0.2,0-0.3-0.1-0.3-0.3s0.1-0.3,0.3-0.3c0,0,0,0,0,0
		C8.8,9.2,9,9.3,9,9.4C9,9.6,8.8,9.7,8.7,9.7z M9.7,9.7c-0.2,0-0.3-0.1-0.3-0.3s0.1-0.3,0.3-0.3c0,0,0,0,0,0c0.2,0,0.3,0.1,0.3,0.3
		C10,9.6,9.9,9.7,9.7,9.7z M10.8,9.7c-0.2,0-0.3-0.1-0.3-0.3s0.1-0.3,0.3-0.3c0,0,0,0,0,0c0.2,0,0.3,0.1,0.3,0.3
		C11.1,9.6,10.9,9.7,10.8,9.7z M10.9,10.9c-0.3,0-0.5,0.2-0.5,0.5v0v0.6c0,0.3,0.2,0.5,0.5,0.5c0.3,0,0.5-0.2,0.5-0.5v-0.6
		C11.3,11.1,11.1,10.9,10.9,10.9C10.9,10.9,10.9,10.9,10.9,10.9z"/>
	<path class="st4" d="M11.2,10.5v-0.4h-3v0.4H11.2L11.2,10.5z M9.3,12.1V12H9v-0.8h0.4v-0.4H7.8v0.4h0.4V12H7.8v0.4h1.2
		C9.1,12.3,9.2,12.2,9.3,12.1z"/>
	<path class="st0" d="M8.7,9.7C8.8,9.7,9,9.6,9,9.4S8.8,9.2,8.7,9.2c0,0,0,0,0,0c-0.2,0-0.3,0.1-0.3,0.3C8.4,9.6,8.5,9.7,8.7,9.7z
		 M9.7,9.7c0.2,0,0.3-0.1,0.3-0.3S9.9,9.2,9.7,9.2c0,0,0,0,0,0c-0.2,0-0.3,0.1-0.3,0.3C9.4,9.6,9.6,9.7,9.7,9.7z M10.8,9.7
		c0.2,0,0.3-0.1,0.3-0.3s-0.1-0.3-0.3-0.3c0,0,0,0,0,0c-0.2,0-0.3,0.1-0.3,0.3C10.5,9.6,10.6,9.7,10.8,9.7z"/>
	<path class="st2" d="M8.3,12.8h0.5V15c0.2,0,0.3-0.1,0.5-0.2v-1.4c-0.3-0.2-0.4-0.7-0.2-1H7.8V12h0.4v-0.8H7.8v-0.4h1.5v0.4H9V12
		h0.4v0.1C9.5,12,9.6,12,9.7,12v-1.5H7.4v1.1H5.6c-0.1,0-0.2,0.1-0.2,0.2c0,0.1,0.1,0.2,0.2,0.2h1.8v0.8h0.4v2C8,14.9,8.2,15,8.3,15
		L8.3,12.8L8.3,12.8z"/>
	<path class="st5" d="M9.1,12.4c-0.2,0.4-0.1,0.8,0.3,1c0.1,0.1,0.2,0.1,0.4,0.1c0.4,0,0.8-0.3,0.8-0.8c0-0.4-0.3-0.8-0.8-0.8
		C9.5,12,9.2,12.1,9.1,12.4z M12.4,15.4c0,0.2,0.2,0.4,0.4,0.4h0.8c0.2,0,0.4-0.2,0.4-0.4S13.7,15,13.5,15h-0.8
		C12.6,15,12.4,15.2,12.4,15.4L12.4,15.4z M5.5,15.4c0,0.2,0.2,0.4,0.4,0.4h0.8c0.2,0,0.4-0.2,0.4-0.4S6.9,15,6.7,15H5.9
		C5.7,15,5.5,15.2,5.5,15.4L5.5,15.4z"/>
</g>
</svg>
