<svg xmlns="http://www.w3.org/2000/svg" xml:space="preserve" style="enable-background:new 0 0 295 720" viewBox="0 0 295 720"><path d="M166 161c0-29.8 24.2-54 54-54 14.2 0 27.2 5.5 36.8 14.5C280.7 90.7 295 52 295 10c0-100.5-81.5-182-182-182S-69-90.5-69 10s81.5 182 182 182c20.1 0 39.5-3.3 57.6-9.3-3-6.6-4.6-14-4.6-21.7z" style="fill:#728bc6;fill-opacity:2.000000e-02"/><circle cx="220" cy="161" r="24" style="fill:#7c73b5;fill-opacity:3.000000e-02"/><path d="M205.9 368.6c5.6 13.1 1.5 28.3-9.8 36.9L176.9 420c-10.2 7.7-24.1 8.3-35 1.6l-24-14.8c-11.6-7.2-17.2-21.1-13.6-34.4l5.6-21c3.5-13.2 15.3-22.5 28.9-23l28.2-.9c12.8-.4 24.5 7.1 29.5 18.8l9.4 22.3z" style="opacity:5.000000e-02"/><path d="m136.6 418.4-18.7-11.6c-11.6-7.2-17.2-21.1-13.6-34.4l5.6-21c2.5-9.6 9.5-17.1 18.3-20.7-4.2-9.1-12.6-15.8-22.9-17.6l-80.9-13.9C11.8 297-.8 302.8-7.4 313.8l-45.5 75.9c-7.1 11.7-5.6 26.7 3.6 36.8l52.5 57.8c9.2 10.2 24 13.1 36.3 7.2l79.9-38c11.5-5.5 18.5-17.5 17.6-30.3l-.4-4.8z" style="fill:#f9a363;fill-opacity:2.000000e-02"/><path d="m18.1 583.6-50.9 50.3c-8.5 8.4-13.8 19.7-14.8 31.7l-.1 1.4c-2.3 28.6 20.2 53 48.9 53 19.3 0 36.8-11.3 44.8-29l3.5-7.7c6.2-13.7 17.1-24.7 30.7-31l42-19.3c24.6-11.3 30.9-43.3 12.6-63.1-7.5-8.1-18.1-12.8-29.2-12.8H82.7c-24.2-.1-47.4 9.5-64.6 26.5z" style="fill-opacity:.1"/></svg>