<?xml version="1.0" encoding="utf-8"?>
<!-- Generator: Adobe Illustrator 27.9.4, SVG Export Plug-In . SVG Version: 9.03 Build 54784)  -->
<svg version="1.1" id="Layer_1" xmlns="http://www.w3.org/2000/svg" xmlns:xlink="http://www.w3.org/1999/xlink" x="0px" y="0px"
	 viewBox="0 0 290.5 586.1" style="enable-background:new 0 0 290.5 586.1;" xml:space="preserve">
<style type="text/css">
	.st0{fill-opacity:8.000000e-02;}
	.st1{opacity:0.1;fill:#574C77;}
	.st2{opacity:5.000000e-02;}
	.st3{fill:#F9A363;fill-opacity:0.37;}
</style>
<g>
	<path class="st0" d="M167.1,553.3L84.5,421.5l34.1,126.8c8.3,30.9,42.8,46.6,71.6,32.6l4.2-2.1C183.3,572.9,174,564.2,167.1,553.3z
		"/>
	<path class="st0" d="M386.4,430.7l-64.5-146.6c-11.3-25.8-41.4-37.5-67.2-26.1l-151.4,66.6c-13.4,5.9-23.1,17-27.6,30l115.2,183.8
		c9.5,15.2,26.6,23,44,20.7l127.2-62C386.7,485.1,397.4,455.8,386.4,430.7z"/>
</g>
<path class="st1" d="M334.4,101.4l-29-18.7l18.1-28.1c9-13.9,5-32.5-8.9-41.5c-13.9-9-32.5-5-41.5,8.9L255,50.1L226.9,32
	c-13.9-9-32.5-5-41.5,8.9c-9,13.9-5,32.5,8.9,41.5l28.1,18.1l-18.7,29c-9,13.9-5,32.5,8.9,41.5c5,3.2,10.7,4.8,16.2,4.8
	c9.8,0,19.5-4.8,25.2-13.7l18.7-29l29,18.7c5,3.2,10.7,4.8,16.2,4.8c9.8,0,19.5-4.8,25.2-13.7C352.3,129,348.3,110.4,334.4,101.4z"
	/>
<g class="st2">
	<path class="st3" d="M113.4,24.9c9-2.2,17,6.1,14.4,15l-20.5,70.7c-2.6,8.9-13.8,11.6-20.2,5l-51-53.1c-6.4-6.7-3.2-17.8,5.8-20
		L113.4,24.9z"/>
	<path class="st3" d="M32.9,94.6c9-2.2,17,6.1,14.4,15L40.5,133c-2.6,8.9-13.8,11.6-20.2,5L3.4,120.4c-6.4-6.7-3.2-17.8,5.8-20
		L32.9,94.6z"/>
</g>
</svg>
