<svg xmlns="http://www.w3.org/2000/svg" xml:space="preserve" id="Layer_1" x="0" y="0" style="enable-background:new 0 0 290.5 586.1" version="1.1" viewBox="0 0 290.5 586.1"><style>.st0{fill-opacity:8.000000e-02}.st3{fill:#f9a363;fill-opacity:.37}</style><path d="M167.1 553.3 84.5 421.5l34.1 126.8c8.3 30.9 42.8 46.6 71.6 32.6l4.2-2.1c-11.1-5.9-20.4-14.6-27.3-25.5zM386.4 430.7l-64.5-146.6c-11.3-25.8-41.4-37.5-67.2-26.1l-151.4 66.6c-13.4 5.9-23.1 17-27.6 30l115.2 183.8c9.5 15.2 26.6 23 44 20.7l127.2-62c24.6-12 35.3-41.3 24.3-66.4z" class="st0"/><path d="m334.4 101.4-29-18.7 18.1-28.1c9-13.9 5-32.5-8.9-41.5s-32.5-5-41.5 8.9L255 50.1 226.9 32c-13.9-9-32.5-5-41.5 8.9s-5 32.5 8.9 41.5l28.1 18.1-18.7 29c-9 13.9-5 32.5 8.9 41.5 5 3.2 10.7 4.8 16.2 4.8 9.8 0 19.5-4.8 25.2-13.7l18.7-29 29 18.7c5 3.2 10.7 4.8 16.2 4.8 9.8 0 19.5-4.8 25.2-13.7 9.2-13.9 5.2-32.5-8.7-41.5z" style="opacity:.1;fill:#574c77"/><g style="opacity:5.000000e-02"><path d="M113.4 24.9c9-2.2 17 6.1 14.4 15l-20.5 70.7c-2.6 8.9-13.8 11.6-20.2 5l-51-53.1c-6.4-6.7-3.2-17.8 5.8-20l71.5-17.6zM32.9 94.6c9-2.2 17 6.1 14.4 15L40.5 133c-2.6 8.9-13.8 11.6-20.2 5L3.4 120.4c-6.4-6.7-3.2-17.8 5.8-20l23.7-5.8z" class="st3"/></g></svg>