<?xml version="1.0" encoding="utf-8"?>
<!-- Generator: Adobe Illustrator 27.9.4, SVG Export Plug-In . SVG Version: 9.03 Build 54784)  -->
<svg version="1.1" id="Layer_1" xmlns="http://www.w3.org/2000/svg" xmlns:xlink="http://www.w3.org/1999/xlink" x="0px" y="0px"
	 viewBox="0 0 295 720" style="enable-background:new 0 0 295 720;" xml:space="preserve">
<style type="text/css">
	.st0{fill:#728BC6;fill-opacity:2.000000e-02;}
	.st1{fill:#7C73B5;fill-opacity:3.000000e-02;}
	.st2{opacity:5.000000e-02;}
	.st3{fill:#F9A363;fill-opacity:2.000000e-02;}
	.st4{fill-opacity:0.1;}
</style>
<path class="st0" d="M166,161c0-29.8,24.2-54,54-54c14.2,0,27.2,5.5,36.8,14.5C280.7,90.7,295,52,295,10c0-100.5-81.5-182-182-182
	S-69-90.5-69,10s81.5,182,182,182c20.1,0,39.5-3.3,57.6-9.3C167.6,176.1,166,168.7,166,161z"/>
<circle class="st1" cx="220" cy="161" r="24"/>
<path class="st2" d="M205.9,368.6c5.6,13.1,1.5,28.3-9.8,36.9L176.9,420c-10.2,7.7-24.1,8.3-35,1.6l-24-14.8
	c-11.6-7.2-17.2-21.1-13.6-34.4l5.6-21c3.5-13.2,15.3-22.5,28.9-23l28.2-0.9c12.8-0.4,24.5,7.1,29.5,18.8L205.9,368.6z"/>
<path class="st3" d="M136.6,418.4l-18.7-11.6c-11.6-7.2-17.2-21.1-13.6-34.4l5.6-21c2.5-9.6,9.5-17.1,18.3-20.7
	c-4.2-9.1-12.6-15.8-22.9-17.6l-80.9-13.9c-12.6-2.2-25.2,3.6-31.8,14.6l-45.5,75.9c-7.1,11.7-5.6,26.7,3.6,36.8l52.5,57.8
	c9.2,10.2,24,13.1,36.3,7.2l79.9-38c11.5-5.5,18.5-17.5,17.6-30.3L136.6,418.4z"/>
<path class="st4" d="M18.1,583.6l-50.9,50.3c-8.5,8.4-13.8,19.7-14.8,31.7l-0.1,1.4c-2.3,28.6,20.2,53,48.9,53
	c19.3,0,36.8-11.3,44.8-29l3.5-7.7c6.2-13.7,17.1-24.7,30.7-31l42-19.3c24.6-11.3,30.9-43.3,12.6-63.1c-7.5-8.1-18.1-12.8-29.2-12.8
	H82.7C58.5,557,35.3,566.6,18.1,583.6z"/>
</svg>
