<?xml version="1.0" encoding="utf-8"?>
<!-- Generator: Adobe Illustrator 27.9.4, SVG Export Plug-In . SVG Version: 9.03 Build 54784)  -->
<svg version="1.1" id="Layer_1" xmlns="http://www.w3.org/2000/svg" xmlns:xlink="http://www.w3.org/1999/xlink" x="0px" y="0px"
	 viewBox="0 0 260 47.7" style="enable-background:new 0 0 260 47.7;" xml:space="preserve">
<style type="text/css">
	.st0{clip-path:url(#SVGID_00000102523972996383086680000016871537323954000792_);fill:#F66B58;}
	.st1{clip-path:url(#SVGID_00000102523972996383086680000016871537323954000792_);fill:#FFFFFF;}
</style>
<g>
	<defs>
		<rect id="SVGID_1_" width="260" height="47.7"/>
	</defs>
	<clipPath id="SVGID_00000127763706795012239580000011352034440811135366_">
		<use xlink:href="#SVGID_1_"  style="overflow:visible;"/>
	</clipPath>
	<path style="clip-path:url(#SVGID_00000127763706795012239580000011352034440811135366_);fill:#F66B58;" d="M131.4,25.5
		c1.2-0.4,1.6-2.1,0.7-3c-1.4-1.4-2.9-2.5-4.6-3.4c-0.8-0.4-1-1.5-0.5-2.5l2.4-5c0.5-1.1,0.2-2.3-0.8-2.6c-3.1-0.9-6.4-1.2-9.7-0.7
		c-0.9,0.1-1.7-0.6-1.7-1.6V1.6c0-1.1-0.9-1.9-2-1.5c-3.5,1-6.8,2.7-9.8,4.9c-0.9,0.6-1.9,0.5-2.4-0.3l-2.4-3.9
		c-0.5-0.9-1.7-0.9-2.6-0.1c-2.9,2.8-5.3,5.9-7.2,9.3c-0.5,1-1.6,1.4-2.4,1.1l-4.1-1.6c-0.9-0.4-2.1,0.3-2.6,1.4
		c-1.5,3.7-2.4,7.5-2.7,11.1c-0.1,1-0.9,2-1.8,2.2l-4.8,1.1c-1.1,0.2-1.9,1.4-1.8,2.5c0.2,3.7,1.1,7.1,2.5,10c0.4,0.8,0.1,2-0.7,2.7
		L68.2,44c-0.9,0.8-1.2,2.1-0.6,3c0,0,0,0,0,0c0.5,0.6,1.3,0.9,2,0.6l25.9-9.2c0.7-0.2,1.2-0.9,1.2-1.6c0-0.1,0-0.3,0-0.5
		c0.3-3.5,2.9-7,6.1-7.9c3.1-1,5.8,0.5,6.8,3.2c0.3,0.9,1.4,1.4,2.3,1L131.4,25.5L131.4,25.5z"/>
	<path style="clip-path:url(#SVGID_00000127763706795012239580000011352034440811135366_);fill:#FFFFFF;" d="M41.4,9.6h15.1
		c1.2,0,2.2,1,2.2,2.2v5.9c0,1.2-1,2.2-2.2,2.2h-2.6c-0.3,0-0.5,0.4-0.2,0.6L55,22c0.9,0.9,0.9,2.3,0,3.2l-1.2,1.2
		c-0.2,0.2-0.1,0.6,0.2,0.6h2.4c1.2,0,2.2,1,2.2,2.2v5.9c0,1.2-1,2.2-2.2,2.2H41.4c-4.8,0-8.7-3.9-8.7-8.7V18.3
		C32.7,13.5,36.6,9.6,41.4,9.6L41.4,9.6z"/>
	<path style="clip-path:url(#SVGID_00000127763706795012239580000011352034440811135366_);fill:#FFFFFF;" d="M27.7,34.3l-2.4-4.5
		c-0.3-0.5-0.2-1.2,0.2-1.6l0,0c1.7-2.2,2.7-5,2.4-8.1c-0.5-6-5.7-10.5-11.7-10.5H3.2c-2.4,0-3.2,0.9-3.2,2v23.7
		c0,1.2,0.9,2.1,2.1,2.1H9c1.2,0,2.1-0.9,2.1-2.1v-1.5c0-0.7,0.6-1.2,1.2-1.2h3.4c0.5,0,0.9,0.2,1.1,0.7l1.6,3.1
		c0.4,0.7,1.1,1.1,1.8,1.1h5.5C27.5,37.4,28.5,35.7,27.7,34.3L27.7,34.3z M14.1,23.4h-1c-0.5,0-0.9-0.4-0.9-0.9v-2.7
		c0-0.5,0.4-0.9,0.9-0.9h1c1.2,0,2.2,1,2.2,2.2S15.3,23.4,14.1,23.4z"/>
	<path style="clip-path:url(#SVGID_00000127763706795012239580000011352034440811135366_);fill:#FFFFFF;" d="M165.6,9.5
		c-2.9-0.2-5.5,1.1-7.2,3.1c-1.6-2.1-4.3-3.4-7.2-3.1c-4.4,0.3-7.7,4.1-7.7,8.5v17c0,1.3,1.1,2.4,2.4,2.4h6.3c1.3,0,2.4-1.1,2.4-2.4
		v-2.6c0-0.3,0.4-0.5,0.6-0.3l1.3,1.3c0.9,0.9,2.5,0.9,3.4,0l1.5-1.5c0.2-0.2,0.6-0.1,0.6,0.3v2.8c0,1.3,1.1,2.4,2.4,2.4h6.3
		c1.3,0,2.4-1.1,2.4-2.4v-17C173.2,13.7,169.9,9.8,165.6,9.5L165.6,9.5z"/>
	<path style="clip-path:url(#SVGID_00000127763706795012239580000011352034440811135366_);fill:#FFFFFF;" d="M242.6,9.6h15.1
		c1.2,0,2.2,1,2.2,2.2v5.9c0,1.2-1,2.2-2.2,2.2h-2.6c-0.3,0-0.5,0.4-0.2,0.6l1.4,1.4c0.9,0.9,0.9,2.3,0,3.2l-1.2,1.2
		c-0.2,0.2-0.1,0.6,0.2,0.6h2.4c1.2,0,2.2,1,2.2,2.2v5.9c0,1.2-1,2.2-2.2,2.2h-15.1c-4.8,0-8.7-3.9-8.7-8.7V18.3
		C233.9,13.5,237.8,9.6,242.6,9.6L242.6,9.6z"/>
	<path style="clip-path:url(#SVGID_00000127763706795012239580000011352034440811135366_);fill:#FFFFFF;" d="M190,9.5
		c-7.7,0-13.9,6.2-13.9,13.9v11.7c0,1.3,1.1,2.4,2.4,2.4h5.4c1.3,0,2.4-1.1,2.4-2.4v-1.2c0-0.9,0.7-1.6,1.6-1.6h4.2
		c0.9,0,1.6,0.7,1.6,1.6v1.2c0,1.3,1.1,2.4,2.4,2.4h5.4c1.3,0,2.4-1.1,2.4-2.4V23.4C203.9,15.7,197.6,9.5,190,9.5L190,9.5z
		 M192.2,24.7c0,0.5-0.4,0.9-0.9,0.9h-2.7c-0.5,0-0.9-0.4-0.9-0.9v-1c0-1.2,1-2.2,2.2-2.2c1.2,0,2.2,1,2.2,2.2L192.2,24.7
		L192.2,24.7z"/>
	<path style="clip-path:url(#SVGID_00000127763706795012239580000011352034440811135366_);fill:#FFFFFF;" d="M219.7,9.6h-10.4
		c-1.5,0-2.7,1.2-2.7,2.7l0.2,22.4c0,1.5,1.2,2.7,2.7,2.7h10.2c6.4,0,11.6-5.2,11.7-11.6l0-4.4C231.5,14.9,226.2,9.6,219.7,9.6
		L219.7,9.6z M218,25.8h-1c-0.5,0-0.9-0.4-0.9-0.9v-2.7c0-0.5,0.4-0.9,0.9-0.9h1c1.2,0,2.2,1,2.2,2.2S219.3,25.7,218,25.8L218,25.8z
		"/>
</g>
</svg>
